<svg width="34" height="34" viewBox="0 0 34 34" fill="none" xmlns="http://www.w3.org/2000/svg">
<path d="M23.983 0.333496H10.0163C3.94967 0.333496 0.333008 3.95016 0.333008 10.0168V23.9668C0.333008 30.0502 3.94967 33.6668 10.0163 33.6668H23.9663C30.033 33.6668 33.6497 30.0502 33.6497 23.9835V10.0168C33.6663 3.95016 30.0497 0.333496 23.983 0.333496ZM16.1663 25.7502C16.1663 26.3502 15.5663 26.7502 15.0163 26.5168C12.9997 25.6502 10.3663 24.8502 8.53301 24.6168L8.21634 24.5835C7.19967 24.4502 6.36634 23.5002 6.36634 22.4668V9.6335C6.36634 8.35016 7.39967 7.40016 8.66634 7.50016C10.7497 7.66683 13.833 8.66683 15.7663 9.76683C16.033 9.91683 16.1663 10.2002 16.1663 10.4835V25.7502ZM27.633 22.4502C27.633 23.4835 26.7997 24.4335 25.783 24.5668L25.433 24.6002C23.6163 24.8502 20.9997 25.6335 18.983 26.4835C18.433 26.7168 17.833 26.3168 17.833 25.7168V10.4668C17.833 10.1668 17.983 9.8835 18.2497 9.7335C20.183 8.65016 23.1997 7.6835 25.2497 7.50016H25.3163C26.5997 7.50016 27.633 8.5335 27.633 9.81683V22.4502Z" fill="#546FFF"/>
</svg>
